{"title":"The Departed {2006 WS} DVDRip.Xvid~Wolftatt2~","uid":6770760,"size":1684990714,"categoryP":"video","categoryS":"movies","magnet":"?xt=urn:btih:ca7fd435625c7de2ab1db7cbf4040fef70be6241&amp;dn=The+Departed+%7B2006+WS%7D+DVDRip.Xvid%7EWolftatt2%7E&amp;tr=udp%3A%2F%2Ftracker.openbittorrent.com%3A80&amp;tr=udp%3A%2F%2Fopen.demonii.com%3A1337&amp;tr=udp%3A%2F%2Ftracker.coppersurfer.tk%3A6969&amp;tr=udp%3A%2F%2Fexodus.desync.com%3A6969","seeders":1,"leechers":0,"uploader":"Applemaggot","files":9,"time":1319566072,"description":"The Departed {2006 WS} \n\nIncluded in this torrent are three movie screenshots, Dvd cover, The 2006 Wide Screen version in .avi format, Media Info.cvs file and two important movie related files{*Do Not Delete These Files*}\n\nIn South Boston, the state police force is waging war on Irish-American organized crime. Young undercover cop Billy Costigan is assigned to infiltrate the mob syndicate run by gangland chief Frank Costello. While Billy quickly gains Costello's confidence, Colin Sullivan, a hardened young criminal who has infiltrated the state police as an informer for the syndicate, is rising to a position of power in the Special Investigation Unit. Each man becomes deeply consumed by his double life, gathering information about the plans and counter-plans of the operations he has penetrated. But when it becomes clear to both the mob and the police that there's a mole in their midst, Billy and Colin are suddenly in danger of being caught and exposed to the enemy-and each must race to uncover the identity of the other man in time to save himself. But is either willing to turn on the friends and comrades they've made during their long stints undercover?\n &lt;a href=&quot;\nhttp://www.imdb.com/title/tt0407887/&quot; rel=&quot;nofollow&quot; target=&quot;_NEW&quot;&gt;\nhttp://www.imdb.com/title/tt0407887/&lt;/a&gt;\n\n\nComplete name :The Departed {2006 WS} DVDRip.Xvid~Wolftatt2~\nFormat : AVI\nFormat/Info : Audio Video Interleave\nFormat profile : OpenDML\nFile size : 1.56 GiB\nDuration : 2h 31mn\nOverall bit rate : 1 480 Kbps\nMovie name : THE_DEPARTED.Title1.DVDRip\nWriting application : Lavf52.78.4\nOriginal source form/Name : THE_DEPARTED\n\nVideo\nID : 0\nFormat : MPEG-4 Visual\nFormat profile : Advanced Simple@L5\nFormat settings, BVOP : 2\nFormat settings, QPel : No\nFormat settings, GMC : No warppoints\nFormat settings, Matrix : Default (H.263)\nMuxing mode : Packed bitstream\nCodec ID : XVID\nCodec ID/Hint : XviD\nDuration : 2h 31mn\nBit rate : 400 Kbps\nWidth : 720 pixels\nHeight : 304 pixels\nDisplay aspect ratio : 2.35:1\nFrame rate : 23.976 fps\nColor space : YUV\nChroma subsampling : 4:2:0\nBit depth : 8 bits\nScan type : Progressive\nCompression mode : Lossy\nBits/(Pixel*Frame) : 0.076\nStream size : 433 MiB (27%)\nWriting library : XviD 1.2.1 (UTC 2008-12-04)\n\nAudio\nID : 1\nFormat : AC-3\nFormat/Info : Audio Coding 3\nMode extension : CM (complete main)\nCodec ID : 2000\nDuration : 2h 31mn\nBit rate mode : Constant\nBit rate : 448 Kbps\nChannel(s) : 6 channels\nChannel positions : Front: L C R, Side: L R, LFE\nSampling rate : 48.0 KHz\nBit depth : 16 bits\nCompression mode : Lossy\nStream size : 177 MiB (11%)\nAlignment : Aligned on interleaves\nInterleave, duration : 35 ms (0.85 video frame)\n\nThanks for Downloading!\n\nEnjoy, and Please Seed!\n\n~Wolftatt2~\n","torrent":{"xt":"urn:btih:ca7fd435625c7de2ab1db7cbf4040fef70be6241","amp;dn":"The+Departed+%7B2006+WS%7D+DVDRip.Xvid%7EWolftatt2%7E","amp;tr":["udp%3A%2F%2Ftracker.openbittorrent.com%3A80","udp%3A%2F%2Fopen.demonii.com%3A1337","udp%3A%2F%2Ftracker.coppersurfer.tk%3A6969","udp%3A%2F%2Fexodus.desync.com%3A6969"],"infoHash":"ca7fd435625c7de2ab1db7cbf4040fef70be6241","infoHashBuffer":{"type":"Buffer","data":[202,127,212,53,98,92,125,226,171,29,183,203,244,4,15,239,112,190,98,65]},"announce":[],"urlList":[]}}